<svg width="48" height="48" viewBox="0 0 48 48" fill="none" xmlns="http://www.w3.org/2000/svg">
<path d="M23.1992 39.4002L11.5992 33.2002C11.1992 33.0002 10.7992 32.4002 10.7992 31.8002V21.8002L6.19922 19.4002C5.19922 18.8002 5.19922 17.4002 6.19922 16.8002L23.1992 7.6002C23.5992 7.4002 24.1992 7.4002 24.5992 7.6002L42.9992 17.6002C43.3992 17.8002 43.7992 18.4002 43.7992 19.0002V31.0002C43.7992 31.8002 43.1992 32.4002 42.3992 32.4002C41.5992 32.4002 40.9992 31.8002 40.9992 31.0002V19.8002L36.9992 22.0002V32.0002C36.9992 32.6002 36.5992 33.0002 36.1992 33.4002L24.5992 39.6002C24.1992 39.8002 23.5992 39.8002 23.1992 39.6002V39.4002ZM23.9992 25.4002L37.5992 18.0002L23.9992 10.6002L10.3992 18.0002L23.9992 25.4002ZM23.9992 36.2002L33.9992 30.8002V23.4002L24.9992 28.4002C24.3992 28.8002 23.5992 28.8002 22.9992 28.4002L13.9992 23.4002V30.8002L23.9992 36.2002Z" fill="#282828"/>
</svg>
