<svg width="98" height="99" viewBox="0 0 98 99" fill="none" xmlns="http://www.w3.org/2000/svg">
<rect y="0.5" width="98" height="98" rx="16" fill="white"/>
<path d="M79.0782 32.1467C80.9265 32.1467 80.294 32.8455 82.7891 32.8455C85.2842 32.8455 88.2356 30.7605 88.2356 27.6676C88.2356 24.7566 86.3499 21.2854 81.9603 21.2854C66.9665 21.2854 59.4869 55.3304 56.859 55.3304C54.231 55.3304 59.1577 33.8649 50.6241 33.8649C41.354 33.8649 36.5284 60.9011 32.9272 60.9011C32.4363 60.9011 32.3034 59.8673 32.3034 59.0905C32.3034 50.86 32.4738 50.2391 32.4738 43.2332C32.4738 39.8977 29.9845 37.4748 27.0851 37.4748C20.8502 37.4748 16.8418 43.0743 16.8418 46.0286C16.8418 48.9829 19.6459 50.1207 21.1707 50.1207C23.9488 50.1207 26.1927 48.6941 26.1927 48.6941C26.1927 51.2817 25.9617 54.4641 25.9617 67.3873C25.9617 69.9373 27.01 73.7146 31.2378 73.7146C39.3845 73.7146 45.6685 43.5999 48.4004 43.5999C51.7157 43.5999 45.6454 71.6873 54.5862 71.6873C62.8859 71.6873 69.0227 32.1495 79.0753 32.1495L79.0782 32.1467Z" fill="#7F65CA"/>
</svg>
