<svg width="31" height="36" viewBox="0 0 31 36" fill="none" xmlns="http://www.w3.org/2000/svg">
<g clip-path="url(#clip0_385_2440)">
<path d="M28.1892 3H2.46819C1.28962 3 0.332031 3.97098 0.332031 5.16295V30.8371C0.332031 32.029 1.28962 33 2.46819 33H28.1892C29.3677 33 30.332 32.029 30.332 30.8371V5.16295C30.332 3.97098 29.3677 3 28.1892 3ZM9.39899 28.7143H4.95257V14.3973H9.40569V28.7143H9.39899ZM7.17578 12.442C5.74944 12.442 4.59766 11.2835 4.59766 9.86384C4.59766 8.4442 5.74944 7.28571 7.17578 7.28571C8.59542 7.28571 9.75391 8.4442 9.75391 9.86384C9.75391 11.2902 8.60212 12.442 7.17578 12.442ZM26.0664 28.7143H21.62V21.75C21.62 20.0893 21.5865 17.9531 19.3097 17.9531C16.9927 17.9531 16.6378 19.7612 16.6378 21.6295V28.7143H12.1914V14.3973H16.457V16.3527H16.5173C17.1133 15.2277 18.5664 14.0424 20.7294 14.0424C25.2294 14.0424 26.0664 17.0089 26.0664 20.8661V28.7143Z" fill="white"/>
</g>
<defs>
<clipPath id="clip0_385_2440">
<rect width="30" height="34.2857" fill="white" transform="translate(0.332031 0.856934)"/>
</clipPath>
</defs>
</svg>
