<svg width="48" height="48" viewBox="0 0 48 48" fill="none" xmlns="http://www.w3.org/2000/svg">
<path d="M32.0008 21.8C32.4008 21.8 33.0008 21.8 33.2008 21.2C33.6008 20.8 33.8008 20.4 33.8008 20C33.8008 19.6 33.8008 19 33.2008 18.8C32.8008 18.4 32.4008 18.2 32.0008 18.2C31.6008 18.2 31.0008 18.2 30.8008 18.8C30.4008 19.2 30.2008 19.6 30.2008 20C30.2008 20.4 30.2008 21 30.8008 21.2C31.2008 21.6 31.6008 21.8 32.0008 21.8ZM17.4008 17.4H24.4008C25.2008 17.4 25.8008 16.8 25.8008 16C25.8008 15.2 25.2008 14.4 24.4008 14.4H17.4008C16.6008 14.4 16.0008 15 16.0008 15.8C16.0008 16.6 16.6008 17.4 17.4008 17.4ZM11.2008 41C10.4008 41 9.60078 40.4 9.20078 39.6C8.20078 36.4 7.40078 33.2 6.40078 30.2C5.40078 26.6 4.80078 22.8 4.80078 19C4.80078 15.2 5.80078 13.8 7.80078 12C9.80078 10 12.2008 9 14.8008 9H25.4008C26.4008 7.8 27.4008 6.8 28.6008 6C29.8008 5.2 31.2008 5 32.8008 5C34.4008 5 33.8008 5 34.2008 5.6C34.6008 6.2 34.8008 6.4 34.8008 7C34.8008 7.6 34.8008 7.2 34.8008 7.4C34.8008 7.4 34.8008 7.6 34.8008 7.8C34.8008 8.2 34.4008 8.8 34.4008 9.2C34.4008 9.8 34.2008 10.2 34.0008 10.8L39.2008 16H41.0008C42.2008 16 43.0008 16.8 43.0008 18V26.8C43.0008 27.6 42.4008 28.4 41.6008 28.8L37.6008 30.2L34.8008 39.8C34.6008 40.6 33.8008 41.2 32.8008 41.2H27.0008C25.8008 41.2 25.0008 40.4 25.0008 39.2V37.2H19.0008V39.2C19.0008 40.4 18.2008 41.2 17.0008 41.2H11.2008V41ZM12.0008 38H16.0008V36C16.0008 34.8 16.8008 34 18.0008 34H26.0008C27.2008 34 28.0008 34.8 28.0008 36V38H32.0008L34.8008 28.6C34.8008 28 35.4008 27.4 36.0008 27.2L40.0008 25.8V18.8H38.0008L31.0008 11.8C31.0008 11.2 31.0008 10.4 31.0008 9.8C31.0008 9.2 31.2008 8.6 31.4008 8C30.4008 8.2 29.6008 8.8 28.8008 9.4C28.0008 10 27.6008 10.8 27.2008 11.8H14.8008C13.2008 11.8 11.6008 12.4 10.4008 13.4C9.20078 14.4 7.80078 16.6 7.80078 18.8C7.80078 22 8.20078 25.2 9.20078 28.4C10.2008 31.6 11.0008 34.6 11.8008 37.8L12.0008 38Z" fill="#282828"/>
</svg>
