<svg width="1731" height="187" viewBox="0 0 1731 187" fill="none" xmlns="http://www.w3.org/2000/svg">
<g clip-path="url(#clip0_760_293)">
<path d="M0.811035 85.9913H34.5675V180.585H65.4131V85.9913H99.3434V60.6197H0.811035V85.9913Z" fill="#282828"/>
<path d="M193.763 105.527H145.438V60.6197H114.593V180.585H145.438V130.884H193.763V180.585H224.609V60.6197H193.763V105.527Z" fill="#282828"/>
<path d="M279.262 155.213V130.377H330.671V105.006H279.262V85.9913H337.362V60.6197H248.431V180.585H339.071V155.213H279.262Z" fill="#282828"/>
<path d="M434.938 60.6197H404.093V180.585H487.376V155.213H434.938V60.6197Z" fill="#282828"/>
<path d="M533.471 60.6197H502.625V180.57H533.471V60.6197Z" fill="#282828"/>
<path d="M622.851 122.934L584.2 60.6197H556.438V180.585H586.256V113.941L610.585 151.622H635.088L659.59 113.68V180.585H689.234V60.6197H661.647L622.851 122.934Z" fill="#282828"/>
<path d="M743.902 60.6197H713.056V180.57H743.902V60.6197Z" fill="#282828"/>
<path d="M759.151 85.9913H792.907V180.585H823.753V85.9913H857.683V60.6197H759.151V85.9913Z" fill="#282828"/>
<path d="M903.778 60.6197H872.932V180.585H956.215V155.213H903.778V60.6197Z" fill="#282828"/>
<path d="M1002.31 130.377H1053.72V105.006H1002.31V85.9913H1060.4V60.6197H971.465V180.585H1062.12V155.213H1002.31V130.377Z" fill="#282828"/>
<path d="M1150.7 114.172C1145.1 111.711 1138.13 109.35 1129.79 107.062C1123.62 105.469 1119.05 104.006 1116.09 102.689C1113.12 101.371 1111.15 100.096 1110.18 98.8364C1109.21 97.5766 1108.72 95.9836 1108.72 94.0431C1108.72 91.8708 1109.46 90.0751 1110.95 88.6414C1112.44 87.2078 1114.38 86.1796 1116.77 85.5569C1119.18 84.9342 1121.91 84.6156 1125 84.6156C1130.47 84.6156 1135.55 85.4121 1140.25 87.0195C1142.16 87.6712 1144.23 88.598 1146.31 89.7855C1151.96 92.9714 1159.07 91.726 1163.23 86.7444C1168.38 80.5318 1167.02 71.0174 1160.09 66.8902C1156.78 64.9207 1153.4 63.3422 1150.11 62.1837C1142.62 59.5625 1134.37 58.2447 1125.35 58.2447C1116.32 58.2447 1108.04 59.5915 1100.84 62.2706C1093.65 64.9497 1087.91 69.1928 1083.62 74.9564C1079.34 80.7201 1077.19 88.1201 1077.19 97.1421C1077.19 104.455 1078.76 110.248 1081.9 114.534C1085.04 118.821 1089.39 122.195 1094.92 124.643C1100.47 127.104 1108.59 129.87 1119.34 132.955C1125.04 134.447 1129.33 135.779 1132.18 136.981C1135.03 138.183 1137.06 139.472 1138.26 140.833C1139.47 142.209 1140.06 143.86 1140.06 145.8C1140.06 147.856 1139.51 149.681 1138.42 151.289C1137.34 152.896 1135.54 154.199 1133.02 155.228C1130.52 156.256 1127.3 156.777 1123.42 156.777C1117.25 156.777 1111.26 155.546 1105.43 153.084C1099.61 150.622 1095.04 147.35 1091.72 143.237L1074.24 162.251C1079.15 168.652 1086.17 173.706 1095.31 177.413C1104.45 181.121 1113.82 182.989 1123.4 182.989C1131.18 182.989 1138.74 181.7 1146.11 179.137C1153.48 176.559 1159.57 172.432 1164.36 166.711C1169.15 161.006 1171.56 153.692 1171.56 144.772C1171.56 136.662 1169.47 130.146 1165.3 125.236C1161.13 120.327 1156.25 116.649 1150.64 114.187L1150.7 114.172Z" fill="#282828"/>
<path d="M1274.17 125.236C1270 120.327 1265.12 116.649 1259.52 114.187C1253.91 111.725 1246.95 109.365 1238.61 107.076C1232.44 105.483 1227.86 104.021 1224.91 102.703C1221.94 101.385 1219.97 100.111 1219 98.8509C1218.03 97.591 1217.53 95.9981 1217.53 94.0575C1217.53 91.8853 1218.27 90.0896 1219.77 88.6559C1221.26 87.2222 1223.2 86.1941 1225.59 85.5714C1227.98 84.9486 1230.73 84.6301 1233.81 84.6301C1239.29 84.6301 1244.37 85.4265 1249.06 87.034C1250.97 87.6857 1253.04 88.6125 1255.13 89.8C1260.78 92.9859 1267.89 91.7405 1272.04 86.7588C1277.2 80.5463 1275.84 71.0319 1268.9 66.9047C1265.6 64.9352 1262.21 63.3567 1258.92 62.1982C1251.44 59.577 1243.18 58.2592 1234.16 58.2592C1225.14 58.2592 1216.85 59.606 1209.66 62.285C1202.46 64.9641 1196.72 69.2072 1192.44 74.9709C1188.15 80.7345 1186.01 88.1346 1186.01 97.1566C1186.01 104.47 1187.57 110.262 1190.72 114.549C1193.86 118.835 1198.19 122.21 1203.73 124.657C1209.28 127.119 1217.4 129.885 1228.15 132.969C1233.86 134.461 1238.14 135.793 1241.01 136.995C1243.86 138.197 1245.89 139.486 1247.09 140.847C1248.29 142.223 1248.89 143.874 1248.89 145.815C1248.89 147.871 1248.34 149.696 1247.25 151.303C1246.16 152.91 1244.37 154.214 1241.85 155.242C1239.34 156.27 1236.13 156.792 1232.25 156.792C1226.08 156.792 1220.08 155.561 1214.26 153.099C1208.44 150.637 1203.86 147.364 1200.55 143.251L1183.07 162.266C1187.98 168.666 1195 173.72 1204.14 177.428C1213.28 181.135 1222.65 183.003 1232.25 183.003C1240.02 183.003 1247.58 181.714 1254.96 179.151C1262.33 176.573 1268.41 172.446 1273.2 166.726C1278 161.02 1280.4 153.707 1280.4 144.786C1280.4 136.677 1278.31 130.16 1274.14 125.251L1274.17 125.236Z" fill="#282828"/>
<path d="M1554.74 60.6197L1507.96 180.57H1541.56L1548.92 159.152H1592.13L1599.49 180.57H1633.07L1586.29 60.6197H1554.75H1554.74ZM1583.57 133.795H1557.4L1570.44 96.0126L1583.57 133.795Z" fill="#282828"/>
<path d="M1730.4 60.6197H1696.47L1671.04 106.729L1645.74 60.6197H1611.81L1655.34 136.025V180.585H1686.19V136.344L1730.4 60.6197Z" fill="#282828"/>
<path d="M1549.61 38.7381C1556.2 38.7381 1553.94 41.2289 1562.85 41.2289C1571.75 41.2289 1582.27 33.7999 1582.27 22.765C1582.27 12.3817 1575.53 0 1559.88 0C1506.4 0 1479.72 121.442 1470.34 121.442C1460.96 121.442 1478.54 44.8783 1448.1 44.8783C1415.03 44.8783 1397.82 141.311 1384.97 141.311C1383.22 141.311 1382.74 137.632 1382.74 134.852C1382.74 105.498 1383.35 103.282 1383.35 78.2872C1383.35 66.3978 1374.47 57.7523 1364.13 57.7523C1341.89 57.7523 1327.59 77.7224 1327.59 88.2649C1327.59 98.8075 1337.6 102.862 1343.03 102.862C1352.94 102.862 1360.95 97.7793 1360.95 97.7793C1360.95 107.004 1360.12 118.358 1360.12 164.452C1360.12 173.547 1363.86 187.014 1378.95 187.014C1408.01 187.014 1430.41 79.605 1440.16 79.605C1451.99 79.605 1430.34 179.788 1462.23 179.788C1491.83 179.788 1513.73 38.7671 1549.58 38.7671L1549.61 38.7381Z" fill="#282828"/>
</g>
<defs>
<clipPath id="clip0_760_293">
<rect width="1729.76" height="187" fill="white" transform="translate(0.724609)"/>
</clipPath>
</defs>
</svg>
