<svg width="40" height="40" viewBox="0 0 40 40" fill="none" xmlns="http://www.w3.org/2000/svg">
<circle cx="20" cy="20" r="20" fill="#E6C7FF"/>
<mask id="mask0_1129_613" style="mask-type:alpha" maskUnits="userSpaceOnUse" x="0" y="0" width="40" height="40">
<circle cx="20" cy="20" r="20" fill="#D6E7FF"/>
</mask>
<g mask="url(#mask0_1129_613)">
<path d="M19.999 25.1934C27.3362 25.1936 33.2839 31.1414 33.2842 38.4785C33.2842 45.8159 27.3363 51.7644 19.999 51.7646C12.6615 51.7646 6.71289 45.816 6.71289 38.4785C6.71314 31.1412 12.6617 25.1934 19.999 25.1934ZM19.999 8C23.7396 8.0002 26.7715 11.4994 26.7715 15.8154C26.7713 20.1313 23.7395 23.6297 19.999 23.6299C16.2584 23.6299 13.2257 20.1315 13.2256 15.8154C13.2256 11.4993 16.2583 8 19.999 8Z" fill="#7F65CA"/>
</g>
</svg>
