<svg width="96" height="96" viewBox="0 0 96 96" fill="none" xmlns="http://www.w3.org/2000/svg">
<path d="M81.8391 32.3171C83.6815 32.3171 83.051 33.0138 85.5383 33.0138C88.0255 33.0138 90.9676 30.9353 90.9676 27.8522C90.9676 24.9505 89.0877 21.4903 84.7121 21.4903C69.7656 21.4903 62.3097 55.4274 59.69 55.4274C57.0704 55.4274 61.9815 34.0299 53.4748 34.0299C44.2341 34.0299 39.4237 60.9805 35.8339 60.9805C35.3445 60.9805 35.2121 59.9499 35.2121 59.1755C35.2121 50.9712 35.3819 50.3522 35.3819 43.3685C35.3819 40.0436 32.9005 37.6283 30.0102 37.6283C23.795 37.6283 19.7993 43.2102 19.7993 46.1551C19.7993 49.1 22.5946 50.2342 24.1145 50.2342C26.8839 50.2342 29.1207 48.8121 29.1207 48.8121C29.1207 51.3915 28.8904 54.5638 28.8904 67.446C28.8904 69.988 29.9354 73.7533 34.1498 73.7533C42.2708 73.7533 48.5349 43.7341 51.2582 43.7341C54.563 43.7341 48.5119 71.7325 57.4245 71.7325C65.698 71.7325 71.8153 32.32 81.8362 32.32L81.8391 32.3171Z" fill="#7F65CA"/>
<path d="M7.23683 57.5633C7.30017 57.831 7.29441 58.0873 7.21668 58.3406C7.13896 58.591 7.00366 58.8098 6.81654 58.994C6.62654 59.1783 6.402 59.3021 6.14003 59.3654C5.86943 59.4316 5.61034 59.423 5.36277 59.3452C5.11232 59.2675 4.89642 59.1322 4.71218 58.9422C4.52794 58.7522 4.40127 58.5277 4.34082 58.2657C4.27461 57.9951 4.28037 57.736 4.36097 57.4885C4.4387 57.238 4.574 57.0221 4.76112 56.8379C4.94823 56.6537 5.17565 56.5299 5.4405 56.4637C5.70822 56.3974 5.96443 56.4061 6.21776 56.4838C6.46821 56.5615 6.68699 56.694 6.87123 56.8811C7.05547 57.0682 7.17926 57.2956 7.24547 57.5604L7.23683 57.5633Z" fill="#7F65CA"/>
<path d="M87.3643 26.6218C87.4276 26.8895 87.4218 27.1457 87.3441 27.399C87.2664 27.6495 87.1311 27.8682 86.944 28.0525C86.754 28.2367 86.5294 28.3605 86.2675 28.4238C85.9969 28.49 85.7378 28.4814 85.4902 28.4037C85.2398 28.326 85.0239 28.1907 84.8396 28.0007C84.6554 27.8107 84.5287 27.5861 84.4683 27.3242C84.402 27.0536 84.4078 26.7945 84.4884 26.5469C84.5661 26.2965 84.7014 26.0806 84.8886 25.8963C85.0757 25.7121 85.3031 25.5883 85.5679 25.5221C85.8357 25.4559 86.0919 25.4645 86.3452 25.5422C86.5957 25.62 86.8144 25.7524 86.9987 25.9395C87.1829 26.1266 87.3067 26.354 87.3729 26.6189L87.3643 26.6218Z" fill="#7F65CA"/>
<path d="M0.774382 51.7426L0.109392 51.7542L0 45.9104L0.664989 45.8988L0.713928 48.4523L8.10366 48.3141L8.11805 49.0424L0.728322 49.1835L0.77726 51.7455L0.774382 51.7426Z" fill="#7F65CA"/>
<path d="M8.10908 44.8279L0.146484 43.59L0.258755 42.8646L3.909 43.4317L4.61141 38.9121L0.961168 38.345L1.07344 37.6253L9.03604 38.8632L8.92377 39.5829L5.26201 39.0158L4.5596 43.5353L8.22135 44.1053L8.10908 44.8308V44.8279Z" fill="#7F65CA"/>
<path d="M9.4477 37.4642L1.80176 34.9194L3.27855 30.4804L3.909 30.6906L2.6625 34.43L5.51533 35.38L6.68122 31.8766L7.30879 32.0867L6.1429 35.5901L9.05331 36.5574L10.3228 32.746L10.9504 32.9532L9.4477 37.4642Z" fill="#7F65CA"/>
<path d="M12.6782 29.2944L5.75195 25.1778L6.12619 24.5445L12.4853 28.3242L14.4515 25.0195L15.0186 25.3563L12.6782 29.2944Z" fill="#7F65CA"/>
<path d="M9.7593 19.003L16.2249 23.8104L15.7845 24.4005L9.31885 19.596L9.7593 19.0058V19.003Z" fill="#7F65CA"/>
<path d="M11.3447 16.7834L11.9464 16.1789L18.9763 19.0576L19.031 19.0029L16.1234 11.9846L16.7424 11.3657L22.4509 17.0512L21.9443 17.5607L17.3354 12.9691L17.2922 13.0123L19.9752 19.5384L19.506 20.0105L12.9856 17.339L12.9424 17.3822L17.5513 21.9738L17.0561 22.4718L11.3476 16.7863L11.3447 16.7834Z" fill="#7F65CA"/>
<path d="M19.532 9.33914L24.3626 15.7875L23.7724 16.2279L18.9419 9.77959L19.532 9.33914Z" fill="#7F65CA"/>
<path d="M21.5448 8.62817L21.208 8.05531L26.2516 5.10175L26.5884 5.67749L24.3861 6.96715L28.1199 13.3464L27.4894 13.7149L23.7528 7.33563L21.5419 8.63105L21.5448 8.62817Z" fill="#7F65CA"/>
<path d="M31.2713 11.6623L28.2803 4.18048L28.9625 3.907L31.7089 10.7756L35.2785 9.34777L35.5232 9.96093L31.2713 11.6623Z" fill="#7F65CA"/>
<path d="M36.5393 9.66155L34.6509 1.82857L39.1964 0.731781L39.3519 1.37661L35.5203 2.30068L36.2255 5.22257L39.8153 4.35608L39.9708 4.99804L36.381 5.86453L37.1007 8.84688L41.0071 7.90554L41.1626 8.54749L36.5422 9.66155H36.5393Z" fill="#7F65CA"/>
<path d="M44.7524 8.30284C44.2054 8.3489 43.7247 8.29708 43.3073 8.15027C42.8899 8.00346 42.553 7.77892 42.2968 7.47377C42.0406 7.16863 41.8794 6.80591 41.8161 6.38562L42.5646 6.32229C42.6193 6.63895 42.7459 6.90091 42.9445 7.1053C43.1432 7.30969 43.3965 7.4565 43.6988 7.54574C44.0039 7.63498 44.335 7.66377 44.6948 7.63498C45.0978 7.60044 45.4491 7.50544 45.7513 7.34423C46.0536 7.18302 46.2839 6.97575 46.4393 6.71955C46.5977 6.46334 46.6639 6.17547 46.638 5.85306C46.6149 5.57958 46.5257 5.35792 46.3674 5.18519C46.2119 5.01247 46.0018 4.87429 45.7398 4.77066C45.4778 4.66415 45.1756 4.57779 44.833 4.5087L43.8571 4.30719C43.2123 4.17477 42.7027 3.95598 42.3285 3.65084C41.9543 3.3457 41.7441 2.93692 41.7009 2.42163C41.6664 1.98982 41.7499 1.6012 41.9543 1.25287C42.1587 0.904547 42.4523 0.622433 42.8323 0.403651C43.2123 0.187748 43.6498 0.0582056 44.1421 0.0179036C44.6401 -0.0223984 45.0921 0.0351759 45.4894 0.187748C45.8895 0.34032 46.2148 0.567738 46.4681 0.867124C46.7186 1.16651 46.8712 1.51771 46.923 1.92361L46.2062 1.98407C46.1256 1.54074 45.901 1.20393 45.5297 0.967879C45.1583 0.731825 44.7063 0.636827 44.1709 0.682886C43.7995 0.711674 43.48 0.803792 43.2065 0.956364C42.933 1.10894 42.7258 1.30469 42.5847 1.54362C42.4436 1.78543 42.3832 2.0474 42.4091 2.33527C42.4321 2.6145 42.53 2.84192 42.7027 3.0204C42.8755 3.196 43.0914 3.33418 43.3447 3.43206C43.598 3.52993 43.8571 3.60766 44.122 3.66523L44.9885 3.83796C45.2504 3.89265 45.5124 3.96462 45.7772 4.05386C46.0421 4.1431 46.2868 4.26113 46.5142 4.40794C46.7416 4.55476 46.9287 4.74187 47.0813 4.97217C47.231 5.19959 47.3202 5.4817 47.349 5.81563C47.3836 6.2388 47.303 6.63031 47.1101 6.99303C46.9143 7.35287 46.6207 7.65225 46.2206 7.88543C45.8204 8.1186 45.331 8.25966 44.7495 8.30572L44.7524 8.30284Z" fill="#7F65CA"/>
<path d="M51.0345 8.2884C50.4875 8.24522 50.0211 8.11856 49.6325 7.90841C49.2439 7.69827 48.9474 7.42191 48.743 7.07934C48.5386 6.73678 48.4378 6.35391 48.4436 5.92786L49.1921 5.98543C49.1949 6.30785 49.2784 6.5842 49.4454 6.82026C49.6095 7.05343 49.834 7.23767 50.1219 7.37297C50.4069 7.50827 50.7293 7.59175 51.0892 7.62054C51.4922 7.65221 51.8549 7.6119 52.1773 7.50251C52.4997 7.39312 52.7588 7.22328 52.9575 6.99586C53.1561 6.76844 53.2655 6.49496 53.2914 6.16967C53.3115 5.89619 53.2597 5.66301 53.1302 5.46726C53.0035 5.27151 52.8164 5.10167 52.5775 4.95773C52.3357 4.81379 52.0507 4.67849 51.7254 4.55471L50.7926 4.20063C50.1766 3.96745 49.7102 3.67094 49.3878 3.31111C49.0654 2.95127 48.9243 2.5137 48.9646 1.99841C48.9992 1.56661 49.1431 1.19525 49.3993 0.88435C49.6555 0.573449 49.9895 0.340273 50.4011 0.184822C50.8099 0.0322506 51.2619 -0.0282024 51.7541 0.0120996C52.255 0.0495228 52.6897 0.176186 53.0582 0.39209C53.4296 0.607993 53.7146 0.881471 53.9161 1.21828C54.1176 1.55509 54.2126 1.92644 54.1982 2.33234L53.4814 2.27765C53.4728 1.82857 53.3029 1.45721 52.9747 1.16646C52.6466 0.875714 52.2147 0.708748 51.6793 0.668446C51.3079 0.639659 50.9769 0.677082 50.6833 0.786474C50.3896 0.892986 50.1536 1.05419 49.9751 1.26722C49.7966 1.48024 49.6987 1.73357 49.6757 2.01856C49.6527 2.2978 49.716 2.53961 49.8571 2.74112C50.001 2.94263 50.191 3.1096 50.4242 3.25065C50.6602 3.38883 50.9049 3.50686 51.1554 3.60473L51.9816 3.91276C52.232 4.00775 52.4796 4.12002 52.7243 4.24957C52.9719 4.37911 53.1935 4.53456 53.395 4.71592C53.5965 4.89728 53.752 5.11318 53.8643 5.36363C53.9765 5.61408 54.0197 5.90483 53.9938 6.23876C53.9621 6.66193 53.8211 7.03904 53.5706 7.36433C53.3202 7.68963 52.9805 7.9372 52.5487 8.10416C52.1169 8.27113 51.6131 8.33446 51.0287 8.2884H51.0345Z" fill="#7F65CA"/>
<path d="M58.9219 9.47441L59.5725 1.14917L60.2749 1.39962L59.6531 8.54171L59.7078 8.56186L63.7697 2.65474L64.5757 2.94261L63.9453 10.0818L64.0115 10.1077L68.0676 4.19773L68.7701 4.45105L63.9712 11.288L63.2285 11.0232L63.7841 3.96743L63.7323 3.95016L59.6703 9.74789L58.9219 9.47729V9.47441Z" fill="#7F65CA"/>
<path d="M65.9638 12.2322L65.2959 11.8436L71.8997 6.37115L72.5762 6.76842L71.0361 15.203L70.374 14.8144L71.7759 7.40749L71.7299 7.3787L65.9638 12.2322ZM68.0048 9.84576L71.4535 11.8637L71.1196 12.4337L67.6709 10.4157L68.0048 9.84576Z" fill="#7F65CA"/>
<path d="M75.4203 8.46397L76.0824 8.99365L75.5613 13.4729L75.6218 13.519L79.8679 12.0192L80.5358 12.5517L75.4088 14.302L73.2296 17.0253L72.6538 16.5675L74.833 13.8443L75.4203 8.46109V8.46397Z" fill="#7F65CA"/>
<path d="M87.6987 45.2482C87.6498 44.5746 87.7764 43.9643 88.0758 43.4144C88.3752 42.8646 88.8214 42.4213 89.4202 42.0787C90.0161 41.739 90.73 41.5375 91.5677 41.4771C92.4083 41.4166 93.151 41.5116 93.7901 41.7621C94.4292 42.0125 94.9387 42.3896 95.313 42.8905C95.6872 43.3914 95.9002 43.9758 95.9492 44.6494C95.9808 45.0783 95.9405 45.4756 95.834 45.8412C95.7275 46.2097 95.5663 46.5407 95.3475 46.8344C95.1287 47.128 94.8697 47.3756 94.5645 47.5771C94.2594 47.7786 93.9225 47.9225 93.5569 48.0146L93.5022 47.2748C93.7757 47.2 94.0233 47.0848 94.2478 46.9236C94.4724 46.7624 94.6624 46.5695 94.8236 46.3421C94.9848 46.1147 95.1028 45.8642 95.1806 45.585C95.2583 45.3086 95.2871 45.0121 95.264 44.6955C95.2266 44.1888 95.0625 43.734 94.766 43.3338C94.4724 42.9337 94.0579 42.6286 93.5282 42.4155C92.9985 42.2025 92.3594 42.1219 91.6167 42.1766C90.8711 42.2313 90.2522 42.4011 89.7628 42.6861C89.2705 42.974 88.9078 43.3367 88.6746 43.7743C88.4443 44.2118 88.3436 44.684 88.381 45.1935C88.404 45.5102 88.4731 45.798 88.5911 46.0629C88.7063 46.3248 88.8617 46.5551 89.0546 46.7566C89.2475 46.9581 89.4634 47.1222 89.7081 47.2489C89.9528 47.3756 90.2147 47.4562 90.494 47.4878L90.5487 48.2277C90.1744 48.1902 89.8203 48.0924 89.4893 47.9398C89.1582 47.7843 88.8646 47.5771 88.6055 47.318C88.3464 47.0589 88.1392 46.7566 87.9808 46.4054C87.8225 46.0571 87.7275 45.6685 87.6958 45.2424L87.6987 45.2482Z" fill="#7F65CA"/>
<path d="M87.4731 54.1204L91.2903 52.5371L91.2069 53.3662L87.3896 54.9725L87.476 54.1233L87.4731 54.1204ZM87.9395 49.4598L95.9568 50.263L95.6977 52.8567C95.6401 53.4267 95.4904 53.893 95.2457 54.2529C95.001 54.6127 94.6873 54.8718 94.3073 55.0301C93.9244 55.1884 93.5012 55.246 93.0349 55.2C92.5685 55.1539 92.1655 55.0157 91.8287 54.7854C91.4919 54.5551 91.2414 54.2413 91.0773 53.8383C90.9132 53.4353 90.8614 52.9517 90.919 52.3903L91.1406 50.1881L91.8085 50.2543L91.5897 52.4335C91.5466 52.8538 91.584 53.2079 91.6962 53.4986C91.8085 53.7894 91.9841 54.0168 92.2259 54.178C92.4677 54.3392 92.7614 54.44 93.1097 54.4745C93.4609 54.5091 93.7747 54.4716 94.0511 54.3565C94.3274 54.2442 94.5491 54.0542 94.7218 53.7923C94.8917 53.5303 95.001 53.1877 95.0413 52.7646L95.2256 50.9251L87.8704 50.1881L87.9424 49.4569L87.9395 49.4598Z" fill="#7F65CA"/>
<path d="M87.1736 55.767L94.9721 57.7907L93.7976 62.3189L93.1527 62.152L94.143 58.3348L91.2326 57.5806L90.3028 61.1559L89.6637 60.9918L90.5906 57.4165L87.6227 56.645L86.6122 60.5341L85.9731 60.3672L87.1678 55.767H87.1736Z" fill="#7F65CA"/>
<path d="M85.5937 61.49L85.9018 60.7818L92.1198 66.6861L91.8061 67.4057L83.2476 66.8789L83.5527 66.1765L91.0749 66.6861L91.0979 66.6371L85.5937 61.49ZM88.2048 63.2316L86.6099 66.8962L86.0054 66.6314L87.5973 62.9668L88.2019 63.2287L88.2048 63.2316Z" fill="#7F65CA"/>
<path d="M89.8107 70.1894L90.3778 70.5377L87.3205 75.5208L86.7534 75.1725L88.0863 72.9962L81.7876 69.1301L82.1676 68.5083L88.4692 72.3744L89.8078 70.1894H89.8107Z" fill="#7F65CA"/>
<path d="M79.8108 72.1008L85.9511 77.3171L82.9227 80.8809L82.416 80.452L84.9695 77.4466L82.678 75.5006L80.2858 78.316L79.7849 77.8899L82.1771 75.0774L79.8396 73.0911L77.2372 76.1541L76.7334 75.728L79.8108 72.1037V72.1008Z" fill="#7F65CA"/>
<path d="M73.8051 78.4627L74.4269 78.0022L76.8623 86.2238L76.2319 86.6901L69.0811 81.9575L69.6971 81.4998L75.9555 85.6998L75.9987 85.6682L73.8022 78.4599L73.8051 78.4627ZM75.1955 81.2752L71.9828 83.6531L71.5913 83.1234L74.804 80.7456L75.1955 81.2752Z" fill="#7F65CA"/>
<path d="M63.2829 93.4752L60.2285 86.0194L60.8993 85.7459L67.8543 90.1849L67.9205 90.1589L65.3671 83.9179L66.0465 83.6387L69.1008 91.0945L68.4387 91.3651L61.4549 86.9261L61.4002 86.9492L63.9594 93.2017L63.2829 93.4781V93.4752Z" fill="#7F65CA"/>
<path d="M58.8246 86.3821L60.5835 94.2468L56.0178 95.2687L55.8739 94.621L59.7199 93.7603L59.0635 90.8269L55.4594 91.6329L55.3154 90.9881L58.9196 90.182L58.2489 87.191L54.328 88.069L54.1841 87.4242L58.8217 86.385L58.8246 86.3821Z" fill="#7F65CA"/>
<path d="M51.7395 87.7409L54.1548 95.7351L53.4092 95.7553L51.3969 88.8752H51.3365L49.6927 95.856L48.8406 95.8791L46.8399 88.9989H46.7708L45.1328 95.9798L44.3872 96L46.3793 87.8877L47.1681 87.8676L49.2091 94.6441H49.2638L50.9479 87.7668L51.7424 87.7467L51.7395 87.7409Z" fill="#7F65CA"/>
<path d="M40.8377 87.2486L38.906 95.0701L36.3756 94.4454C35.82 94.3072 35.3796 94.0942 35.0571 93.8006C34.7347 93.5069 34.5246 93.1615 34.4209 92.7614C34.3173 92.3612 34.3231 91.9323 34.4325 91.4774C34.5447 91.0226 34.7376 90.6455 35.014 90.3432C35.2903 90.041 35.6358 89.8395 36.0589 89.7358C36.4792 89.6322 36.9657 89.6466 37.5156 89.7819L39.6631 90.3116L39.5019 90.9622L37.3774 90.4382C36.9686 90.3375 36.6117 90.3202 36.3065 90.3893C36.0042 90.4613 35.7538 90.6023 35.558 90.8182C35.3623 91.0341 35.2212 91.3105 35.1377 91.6502C35.0543 91.9927 35.0485 92.3094 35.1205 92.5973C35.1953 92.8851 35.3479 93.1327 35.584 93.34C35.82 93.5472 36.1424 93.6998 36.5541 93.8034L38.3504 94.2468L40.1208 87.0701L40.8348 87.2457L40.8377 87.2486ZM36.2921 86.1259L37.3198 90.1302L36.5109 89.9287L35.4602 85.9215L36.2892 86.1259H36.2921Z" fill="#7F65CA"/>
<path d="M34.7007 85.5963L31.5975 93.0321L27.2822 91.23L27.5384 90.6168L31.1772 92.1339L32.3344 89.3588L28.926 87.9367L29.1793 87.3293L32.5877 88.7514L33.768 85.9216L30.0602 84.3758L30.3135 83.7684L34.7007 85.5992V85.5963Z" fill="#7F65CA"/>
<path d="M29.2476 83.2242L29.9068 83.6301L23.185 88.9558L22.5171 88.5441L24.2415 80.1469L24.8949 80.5499L23.3318 87.9223L23.3778 87.9511L29.2476 83.2271V83.2242ZM27.1547 85.5618L23.7521 83.4689L24.0975 82.9076L27.5002 85.0004L27.1547 85.5618Z" fill="#7F65CA"/>
<path d="M23.6976 79.6287L18.4813 85.769L17.9199 85.2911L22.7101 79.6546L19.7796 77.1645L20.2085 76.6607L23.6976 79.6258V79.6287Z" fill="#7F65CA"/>
<path d="M13.0493 80.7629L18.8788 75.1984L19.3854 75.7309L13.5589 81.2926L13.0493 80.76V80.7629Z" fill="#7F65CA"/>
<path d="M12.1277 78.8773L11.598 79.2803L8.06006 74.6255L8.58975 74.2224L10.1328 76.2548L16.0198 71.7813L16.4602 72.3628L10.5761 76.8363L12.1248 78.8744L12.1277 78.8773Z" fill="#7F65CA"/>
<path d="M7.05275 73.094L6.65836 72.3426L8.93832 68.4535L8.90378 68.3873L4.41294 68.0505L4.01855 67.2934L9.4162 67.754L12.508 66.139L12.8505 66.7896L9.75877 68.4045L7.05563 73.094H7.05275Z" fill="#7F65CA"/>
</svg>
