<svg width="81" height="81" viewBox="0 0 81 81" fill="none" xmlns="http://www.w3.org/2000/svg">
<g clip-path="url(#clip0_6_1773)">
<path d="M6.10786 48.5701C6.16132 48.796 6.15646 49.0121 6.09085 49.2259C6.02524 49.4372 5.91103 49.6218 5.75309 49.7772C5.59271 49.9327 5.40318 50.0371 5.18205 50.0906C4.95363 50.1464 4.73494 50.1392 4.52596 50.0736C4.31456 50.008 4.13231 49.8938 3.97679 49.7335C3.82128 49.5732 3.71436 49.3838 3.66333 49.1627C3.60744 48.9344 3.6123 48.7158 3.68034 48.5069C3.74595 48.2956 3.86016 48.1134 4.0181 47.958C4.17605 47.8025 4.36802 47.6981 4.59157 47.6422C4.81756 47.5864 5.03382 47.5937 5.24766 47.6592C5.45906 47.7248 5.64374 47.8365 5.79926 47.9944C5.95477 48.1523 6.05926 48.3442 6.11515 48.5676L6.10786 48.5701Z" fill="black"/>
<path d="M0.653657 43.6587L0.0923381 43.6684L0 38.7377L0.561319 38.728L0.602628 40.8825L6.84031 40.7659L6.85246 41.3804L0.614778 41.4994L0.656087 43.6612L0.653657 43.6587Z" fill="black"/>
<path d="M6.84429 37.8245L0.123047 36.78L0.217815 36.1679L3.29899 36.6464L3.8919 32.833L0.810723 32.3545L0.905491 31.7473L7.62674 32.7918L7.53197 33.399L4.44107 32.9205L3.84816 36.7339L6.93906 37.2148L6.84429 37.8269V37.8245Z" fill="black"/>
<path d="M7.97544 31.6113L1.52148 29.4641L2.76805 25.7188L3.30021 25.8961L2.24804 29.0512L4.65612 29.8528L5.64025 26.8968L6.16998 27.0741L5.18585 30.0301L7.64253 30.8462L8.71414 27.6303L9.24387 27.8052L7.97544 31.6113Z" fill="black"/>
<path d="M10.7019 24.7182L4.85547 21.2448L5.17136 20.7104L10.5391 23.8996L12.1988 21.1112L12.6775 21.3954L10.7019 24.7182Z" fill="black"/>
<path d="M8.23702 16.0347L13.6947 20.091L13.3229 20.5889L7.86523 16.535L8.23702 16.0371V16.0347Z" fill="black"/>
<path d="M9.57617 14.162L10.084 13.652L16.018 16.0809L16.0641 16.0347L13.6099 10.113L14.1323 9.59082L18.9509 14.3879L18.5233 14.8179L14.6329 10.9437L14.5965 10.9802L16.8612 16.4865L16.4651 16.8849L10.9612 14.6308L10.9248 14.6673L14.8151 18.5414L14.3972 18.9616L9.5786 14.1645L9.57617 14.162Z" fill="black"/>
<path d="M16.4884 7.88086L20.5658 13.3216L20.0677 13.6933L15.9902 8.25248L16.4884 7.88086Z" fill="black"/>
<path d="M18.1866 7.28084L17.9023 6.79749L22.1596 4.30542L22.4439 4.7912L20.585 5.87936L23.7367 11.2618L23.2045 11.5727L20.0504 6.19026L18.1842 7.28327L18.1866 7.28084Z" fill="black"/>
<path d="M26.3958 9.84087L23.8711 3.52811L24.447 3.29736L26.7652 9.09276L29.7783 7.88802L29.9849 8.40538L26.3958 9.84087Z" fill="black"/>
<path d="M30.844 8.15291L29.25 1.54383L33.0869 0.618408L33.2181 1.16249L29.9838 1.94217L30.5792 4.40752L33.6093 3.67642L33.7406 4.21807L30.7104 4.94917L31.3179 7.46553L34.6153 6.67127L34.7466 7.21292L30.8465 8.15291H30.844Z" fill="black"/>
<path d="M37.7775 7.00656C37.3158 7.04543 36.91 7.00171 36.5576 6.87783C36.2053 6.75396 35.921 6.5645 35.7047 6.30704C35.4884 6.04957 35.3524 5.74353 35.2989 5.38891L35.9307 5.33547C35.9769 5.60265 36.0838 5.82368 36.2514 5.99613C36.4191 6.16859 36.6329 6.29246 36.8881 6.36776C37.1457 6.44306 37.4251 6.46735 37.7289 6.44306C38.069 6.41391 38.3655 6.33375 38.6206 6.19774C38.8758 6.06172 39.0702 5.88683 39.2014 5.67066C39.3351 5.45449 39.3909 5.21159 39.3691 4.93956C39.3496 4.70881 39.2743 4.52178 39.1407 4.37605C39.0094 4.23031 38.8321 4.11372 38.6109 4.02628C38.3898 3.93641 38.1347 3.86354 37.8455 3.80525L37.0217 3.63523C36.4774 3.5235 36.0473 3.3389 35.7314 3.08143C35.4155 2.82397 35.2382 2.47906 35.2017 2.04428C35.1725 1.67995 35.243 1.35204 35.4155 1.05814C35.5881 0.764245 35.8359 0.526211 36.1567 0.341613C36.4774 0.159444 36.8468 0.0501429 37.2623 0.016138C37.6827 -0.0178668 38.0642 0.0307115 38.3995 0.159444C38.7373 0.288177 39.0119 0.480061 39.2257 0.732669C39.4371 0.985276 39.5659 1.2816 39.6096 1.62408L39.0046 1.67509C38.9365 1.30104 38.747 1.01685 38.4335 0.817681C38.1201 0.61851 37.7386 0.538355 37.2866 0.577218C36.9731 0.601507 36.7034 0.679233 36.4726 0.807965C36.2417 0.936698 36.0668 1.10186 35.9477 1.30346C35.8286 1.50749 35.7776 1.72853 35.7995 1.97142C35.8189 2.20702 35.9015 2.39891 36.0473 2.5495C36.1931 2.69766 36.3754 2.81425 36.5892 2.89684C36.803 2.97942 37.0217 3.045 37.2453 3.09358L37.9767 3.23931C38.1978 3.28546 38.419 3.34619 38.6425 3.42148C38.8661 3.49678 39.0726 3.59636 39.2646 3.72024C39.4565 3.84411 39.6145 4.00199 39.7433 4.19631C39.8696 4.38819 39.945 4.62623 39.9693 4.90798C39.9984 5.26503 39.9304 5.59536 39.7676 5.90141C39.6023 6.20502 39.3545 6.45763 39.0167 6.65437C38.679 6.85111 38.2659 6.97013 37.775 7.00899L37.7775 7.00656Z" fill="black"/>
<path d="M43.0778 6.99413C42.6161 6.9577 42.2224 6.85083 41.8944 6.67352C41.5663 6.4962 41.3161 6.26303 41.1435 5.97399C40.971 5.68495 40.886 5.3619 40.8908 5.00242L41.5226 5.051C41.525 5.32304 41.5955 5.55621 41.7364 5.75538C41.875 5.95213 42.0645 6.10758 42.3075 6.22174C42.548 6.3359 42.8202 6.40633 43.1239 6.43062C43.4641 6.45734 43.7703 6.42334 44.0425 6.33104C44.3146 6.23874 44.5333 6.09543 44.701 5.90355C44.8687 5.71166 44.961 5.48092 44.9829 5.20645C44.9999 4.9757 44.9561 4.77896 44.8468 4.61379C44.7399 4.44863 44.5819 4.30532 44.3802 4.18387C44.1761 4.06243 43.9356 3.94827 43.661 3.84383L42.8737 3.54507C42.3537 3.34833 41.96 3.09815 41.6878 2.79453C41.4157 2.49092 41.2966 2.12172 41.3306 1.68695C41.3598 1.32261 41.4813 1.00928 41.6976 0.746955C41.9138 0.484632 42.1957 0.28789 42.5432 0.156728C42.8882 0.0279954 43.2697 -0.0230119 43.6853 0.0109929C44.1081 0.0425689 44.475 0.149441 44.786 0.33161C45.0995 0.513779 45.3401 0.744526 45.5102 1.02871C45.6803 1.31289 45.7604 1.62622 45.7483 1.9687L45.1432 1.92255C45.1359 1.54364 44.9926 1.23031 44.7156 0.984989C44.4386 0.739668 44.0741 0.598791 43.6221 0.564786C43.3086 0.540497 43.0292 0.572073 42.7813 0.664372C42.5335 0.754242 42.3342 0.890261 42.1836 1.07C42.0329 1.24974 41.9503 1.46349 41.9308 1.70395C41.9114 1.93955 41.9649 2.14358 42.0839 2.31361C42.2054 2.48363 42.3658 2.62451 42.5626 2.74353C42.7619 2.86011 42.9684 2.9597 43.1798 3.04228L43.8772 3.30218C44.0886 3.38233 44.2976 3.47706 44.5042 3.58636C44.7131 3.69566 44.9002 3.82682 45.0703 3.97985C45.2404 4.13287 45.3717 4.31504 45.4664 4.52635C45.5612 4.73767 45.5976 4.98299 45.5758 5.26474C45.549 5.62179 45.43 5.93998 45.2186 6.21445C45.0072 6.48892 44.7204 6.6978 44.3559 6.83868C43.9914 6.97956 43.5662 7.033 43.0729 6.99413H43.0778Z" fill="black"/>
<path d="M49.7363 7.99514L50.2855 0.970703L50.8784 1.18202L50.3535 7.20817L50.3997 7.22517L53.8284 2.24103L54.5088 2.48392L53.9766 8.50764L54.0325 8.5295L57.4563 3.54293L58.0492 3.75667L53.9985 9.52535L53.3715 9.30189L53.8405 3.34861L53.7968 3.33404L50.3681 8.22588L49.7363 7.99756V7.99514Z" fill="black"/>
<path d="M55.679 10.322L55.1152 9.99408L60.6895 5.37671L61.2606 5.7119L59.9606 12.8286L59.4017 12.5007L60.5851 6.25112L60.5462 6.22683L55.679 10.322ZM57.4018 8.30841L60.3129 10.0111L60.031 10.492L57.1199 8.78934L57.4018 8.30841Z" fill="black"/>
<path d="M63.6614 7.14257L64.2202 7.58949L63.7804 11.3689L63.8315 11.4077L67.4156 10.1423L67.9794 10.5916L63.6516 12.0684L61.8122 14.3662L61.3262 13.98L63.1656 11.6822L63.6614 7.14014V7.14257Z" fill="black"/>
<path d="M74.0262 38.1792C73.9849 37.6108 74.0918 37.0959 74.3445 36.632C74.5973 36.168 74.9739 35.794 75.4793 35.5049C75.9823 35.2183 76.585 35.0483 77.2921 34.9973C78.0016 34.9463 78.6285 35.0264 79.168 35.2378C79.7074 35.4491 80.1375 35.7673 80.4534 36.1899C80.7693 36.6125 80.9491 37.1056 80.9905 37.674C81.0172 38.0359 80.9832 38.3711 80.8933 38.6795C80.8034 38.9904 80.6673 39.2698 80.4826 39.5175C80.2979 39.7653 80.0792 39.9742 79.8217 40.1442C79.5641 40.3142 79.2798 40.4356 78.9712 40.5134L78.925 39.8891C79.1558 39.826 79.3648 39.7288 79.5544 39.5928C79.7439 39.4568 79.9043 39.2941 80.0404 39.1022C80.1764 38.9103 80.2761 38.699 80.3417 38.4634C80.4073 38.2302 80.4316 37.98 80.4121 37.7128C80.3805 37.2853 80.242 36.9016 79.9918 36.564C79.7439 36.2263 79.394 35.9689 78.9469 35.7891C78.4998 35.6094 77.9603 35.5414 77.3334 35.5875C76.704 35.6337 76.1816 35.777 75.7685 36.0174C75.353 36.2603 75.0468 36.5664 74.85 36.9356C74.6556 37.3048 74.5705 37.7031 74.6021 38.133C74.6216 38.4002 74.6799 38.6431 74.7795 38.8666C74.8767 39.0876 75.0079 39.2819 75.1707 39.4519C75.3335 39.622 75.5158 39.7604 75.7223 39.8673C75.9289 39.9742 76.15 40.0422 76.3857 40.0689L76.4319 40.6931C76.116 40.6615 75.8171 40.579 75.5376 40.4502C75.2582 40.3191 75.0103 40.1442 74.7917 39.9256C74.573 39.707 74.398 39.4519 74.2643 39.1556C74.1307 38.8617 74.0505 38.5338 74.0238 38.1743L74.0262 38.1792Z" fill="black"/>
<path d="M73.838 45.6651L77.0602 44.3292L76.9897 45.0287L73.7676 46.384L73.8405 45.6675L73.838 45.6651ZM74.2317 41.7327L80.9991 42.4103L80.7804 44.5988C80.7318 45.0797 80.6055 45.4732 80.3989 45.7768C80.1924 46.0804 79.9275 46.299 79.6068 46.4326C79.2836 46.5662 78.9264 46.6148 78.5327 46.5759C78.1391 46.5371 77.7989 46.4205 77.5146 46.2262C77.2303 46.0318 77.0189 45.7671 76.8803 45.427C76.7418 45.087 76.6981 44.6789 76.7467 44.2053L76.9338 42.3472L77.4976 42.403L77.3129 44.2417C77.2764 44.5963 77.308 44.8951 77.4028 45.1404C77.4976 45.3857 77.6458 45.5776 77.8499 45.7136C78.054 45.8497 78.3019 45.9347 78.5959 45.9638C78.8923 45.993 79.1572 45.9614 79.3905 45.8642C79.6238 45.7695 79.8109 45.6092 79.9567 45.3882C80.1 45.1671 80.1924 44.8781 80.2264 44.521L80.3819 42.969L74.1734 42.3472L74.2341 41.7302L74.2317 41.7327Z" fill="black"/>
<path d="M73.5836 47.0544L80.1663 48.762L79.1749 52.5827L78.6306 52.4418L79.4665 49.221L77.0098 48.5847L76.225 51.6014L75.6855 51.4629L76.468 48.4462L73.9627 47.7953L73.1098 51.0767L72.5703 50.9359L73.5787 47.0544H73.5836Z" fill="black"/>
<path d="M72.248 51.8832L72.508 51.2856L77.7567 56.2674L77.4918 56.8746L70.2676 56.4301L70.5252 55.8374L76.8746 56.2674L76.8941 56.2261L72.248 51.8832ZM74.452 53.3527L73.1058 56.4447L72.5955 56.2212L73.9392 53.1292L74.4495 53.3502L74.452 53.3527Z" fill="black"/>
<path d="M75.8094 59.2234L76.2881 59.5173L73.7075 63.7218L73.2288 63.4279L74.3538 61.5916L69.0371 58.3296L69.3579 57.8049L74.677 61.067L75.807 59.2234H75.8094Z" fill="black"/>
<path d="M67.3671 60.8359L72.5502 65.2371L69.9939 68.2441L69.5663 67.8822L71.7216 65.3464L69.7874 63.7045L67.7681 66.08L67.3453 65.7205L69.3646 63.3474L67.3915 61.6715L65.1948 64.2559L64.7695 63.8964L67.3671 60.8384V60.8359Z" fill="black"/>
<path d="M62.2981 66.2041L62.823 65.8154L64.8787 72.7524L64.3465 73.1459L58.3105 69.1528L58.8306 68.7666L64.1133 72.3104L64.1497 72.2836L62.2957 66.2016L62.2981 66.2041ZM63.4718 68.5771L60.7599 70.5834L60.4295 70.1365L63.1413 68.1302L63.4718 68.5771Z" fill="black"/>
<path d="M53.418 78.8709L50.8398 72.58L51.406 72.3493L57.2768 76.0946L57.3327 76.0728L55.1773 70.8069L55.7508 70.5713L58.329 76.8622L57.7701 77.0905L51.875 73.3451L51.8288 73.3645L53.9891 78.6402L53.418 78.8733V78.8709Z" fill="black"/>
<path d="M49.6534 72.886L51.1381 79.5218L47.2842 80.3841L47.1627 79.8375L50.4091 79.1113L49.8551 76.6362L46.8128 77.3163L46.6913 76.7723L49.7336 76.0922L49.1674 73.5685L45.8578 74.3093L45.7363 73.7653L49.651 72.8884L49.6534 72.886Z" fill="black"/>
<path d="M43.6748 74.0325L45.7136 80.7776L45.0842 80.7946L43.3857 74.9895H43.3347L41.9471 80.8796L41.2279 80.899L39.5391 75.0939H39.4807L38.0981 80.984L37.4688 81.001L39.1503 74.1563L39.8161 74.1393L41.5389 79.857H41.5851L43.0066 74.0543L43.6773 74.0373L43.6748 74.0325Z" fill="black"/>
<path d="M34.4712 73.617L32.8407 80.2164L30.7048 79.6893C30.2358 79.5728 29.864 79.393 29.5919 79.1453C29.3197 78.8975 29.1423 78.606 29.0549 78.2684C28.9674 77.9308 28.9723 77.5689 29.0646 77.1851C29.1594 76.8014 29.3222 76.4832 29.5554 76.2281C29.7887 75.9731 30.0803 75.8031 30.4375 75.7156C30.7923 75.6282 31.2029 75.6403 31.6671 75.7545L33.4798 76.2014L33.3437 76.7504L31.5504 76.3083C31.2054 76.2233 30.9041 76.2087 30.6465 76.267C30.3913 76.3277 30.1799 76.4467 30.0147 76.6289C29.8495 76.8111 29.7304 77.0443 29.6599 77.3309C29.5895 77.6199 29.5846 77.8871 29.6453 78.13C29.7085 78.3729 29.8373 78.5818 30.0366 78.7566C30.2358 78.9315 30.508 79.0603 30.8555 79.1477L32.3718 79.5218L33.8662 73.4665L34.4688 73.6146L34.4712 73.617ZM30.6343 72.6698L31.5018 76.0484L30.819 75.8784L29.9321 72.4973L30.6319 72.6698H30.6343Z" fill="black"/>
<path d="M29.2913 72.2228L26.6718 78.4967L23.0293 76.9762L23.2456 76.4588L26.317 77.7389L27.2939 75.3974L24.4168 74.1975L24.6306 73.685L27.5077 74.8849L28.504 72.4973L25.3742 71.1929L25.588 70.6804L29.2913 72.2252V72.2228Z" fill="black"/>
<path d="M24.6871 70.2215L25.2435 70.564L19.5696 75.0575L19.0059 74.7102L20.4614 67.625L21.013 67.965L19.6935 74.1855L19.7324 74.2098L24.6871 70.2239V70.2215ZM22.9205 72.1938L20.0483 70.428L20.3399 69.9543L23.2121 71.7202L22.9205 72.1938Z" fill="black"/>
<path d="M20.0019 67.1876L15.5988 72.3684L15.125 71.9652L19.1684 67.2094L16.6947 65.1084L17.0568 64.6833L20.0019 67.1851V67.1876Z" fill="black"/>
<path d="M11.0137 68.1448L15.9343 63.4497L16.362 63.8991L11.4438 68.5917L11.0137 68.1424V68.1448Z" fill="black"/>
<path d="M10.2382 66.5537L9.7911 66.8937L6.80469 62.9662L7.2518 62.6261L8.55425 64.3409L13.5235 60.5664L13.8953 61.057L8.92847 64.8316L10.2358 66.5513L10.2382 66.5537Z" fill="black"/>
<path d="M5.95375 61.6742L5.62084 61.0402L7.54536 57.7588L7.51621 57.7029L3.72548 57.4187L3.39258 56.7799L7.94874 57.1685L10.5585 55.8059L10.8477 56.3548L8.2379 57.7175L5.95618 61.6742H5.95375Z" fill="black"/>
<path d="M69.0808 27.2685C70.6359 27.2685 70.1038 27.8563 72.2033 27.8563C74.3027 27.8563 76.7861 26.1026 76.7861 23.5012C76.7861 21.0529 75.1994 18.1333 71.5059 18.1333C58.8895 18.1333 52.596 46.7678 50.3847 46.7678C48.1735 46.7678 52.319 28.7137 45.1385 28.7137C37.3383 28.7137 33.2779 51.4532 30.2477 51.4532C29.8346 51.4532 29.7228 50.5837 29.7228 49.9303C29.7228 43.0079 29.8662 42.4856 29.8662 36.5931C29.8662 33.7877 27.7716 31.7498 25.3319 31.7498C20.0857 31.7498 16.7129 36.4595 16.7129 38.9443C16.7129 41.4291 19.0724 42.3861 20.3554 42.3861C22.693 42.3861 24.5811 41.1862 24.5811 41.1862C24.5811 43.3625 24.3867 46.0391 24.3867 56.9086C24.3867 59.0533 25.2687 62.2303 28.8262 62.2303C35.6811 62.2303 40.9687 36.9016 43.2674 36.9016C46.057 36.9016 40.9492 60.5252 48.4723 60.5252C55.456 60.5252 60.6197 27.2709 69.0783 27.2709L69.0808 27.2685Z" fill="black"/>
</g>
<defs>
<clipPath id="clip0_6_1773">
<rect width="81" height="81" fill="white"/>
</clipPath>
</defs>
</svg>
